# xmcd CD database file
#
# Track frame offsets:
#	150
#	10387
#	40360
#	54242
#	75422
#	98420
#	117565
#	155160
#	189044
#	205249
#	239746
#	260110
#	280608
#	302306
#	333959
#
# Disc length: 4792 seconds
#
# Revision: 1
# Processed by: cddbd v1.5.1PL0 Copyright (c) Steve Scherf et al.
# Submitted via: CDex 1.51
#
DISCID=c212b60f
DTITLE=Blues ze Stare Pekarny - II
DYEAR=2004
DGENRE=Blues
TTITLE0=Walk Right In
TTITLE1=Tell Me Mama
TTITLE2=Cicaine Habit Blues
TTITLE3=Long Distance
TTITLE4=Red Rooster
TTITLE5=She's Allright
TTITLE6=Aceton Blues
TTITLE7=Blues pro pana Vanka
TTITLE8=Na perach ruz
TTITLE9=Change
TTITLE10=The Blues Don't Bother Me
TTITLE11=Cold Day In Hell
TTITLE12=Midnigh Blues
TTITLE13=Story Of The Blues
TTITLE14=Steppin' In Steppin' Out
EXTD=YEAR: 2004
EXTT0=
EXTT1=
EXTT2=
EXTT3=
EXTT4=
EXTT5=
EXTT6=
EXTT7=
EXTT8=
EXTT9=
EXTT10=
EXTT11=
EXTT12=
EXTT13=
EXTT14=
PLAYORDER=
